<svg width="19" height="19" viewBox="0 0 19 19" fill="none" xmlns="http://www.w3.org/2000/svg">
<path d="M9.16667 1.83333C13.2092 1.83333 16.5 5.12417 16.5 9.16667C16.5 13.2092 13.2092 16.5 9.16667 16.5C5.12417 16.5 1.83333 13.2092 1.83333 9.16667C1.83333 5.12417 5.12417 1.83333 9.16667 1.83333ZM9.16667 0C4.10667 0 0 4.10667 0 9.16667C0 14.2267 4.10667 18.3333 9.16667 18.3333C14.2267 18.3333 18.3333 14.2267 18.3333 9.16667C18.3333 4.10667 14.2267 0 9.16667 0ZM9.16667 11.9167L5.5 8.25H12.8333L9.16667 11.9167Z" fill="#1C1B1F"/>
</svg>
