<svg width="89" height="84" viewBox="0 0 89 84" fill="none" xmlns="http://www.w3.org/2000/svg">
<path d="M53.9858 0H34.326C34.326 29.6666 9.94785 29.6666 0 29.6666V39.5555C19.4632 39.5555 41.954 34.4439 44.2345 9.96751C46.0629 34.2277 68.8486 39.5555 88.4297 39.5555V29.6666C74.2157 29.6666 53.9858 29.47 53.9858 0Z" fill="#59DC59"/>
<path d="M53.9858 83.79H34.326C34.326 54.1234 9.94785 54.1234 0 54.1234V44.2345C19.4632 44.2345 41.954 49.3461 44.2345 73.8225C46.0629 49.5623 68.8486 44.2345 88.4297 44.2345V54.1234C74.2157 54.1234 53.9858 54.32 53.9858 83.79Z" fill="#59DC59"/>
</svg>
