<svg width="500" height="500" viewBox="0 0 500 500" fill="none" xmlns="http://www.w3.org/2000/svg">
<mask id="mask0_2496_4639" style="mask-type:luminance" maskUnits="userSpaceOnUse" x="28" y="35" width="442" height="439">
<path d="M45.2909 182.2C46.4199 155.629 53.9789 129.934 70.7799 106.284C133.965 17.3449 292.337 19.5979 379.971 69.6729C406.284 84.7089 428.921 107.763 437.988 136.277C445.312 159.308 443.421 183.972 443.29 208.062C443.142 235.224 448.954 255.369 460.103 279.744C469.026 299.253 470.902 322.443 467.29 343.295C459.454 388.54 425.743 425.156 385.291 445.922C320.997 478.926 218.985 479.33 140.55 460.318C100.909 450.709 63.0509 431.26 43.8009 403.9C28.4839 382.13 26.1119 357.232 31.0019 334.304C34.9339 315.869 44.2329 299.395 52.0059 282.011C58.2369 268.076 55.6009 255.963 51.8719 240.814C47.0229 221.113 44.4739 201.427 45.2909 182.2Z" fill="white"/>
</mask>
<g mask="url(#mask0_2496_4639)">
<path d="M500 -0.0292969H0V499.971H500V-0.0292969Z" fill="#59DC59" fill-opacity="0.2"/>
<path opacity="0.46" d="M238.423 -0.000296876C238.423 -0.000296876 317.268 120.364 179.352 165.958C41.436 211.552 0 366.091 0 366.091V-0.0292969L238.423 -0.000296876Z" fill="#59DC59" fill-opacity="0.59"/>
<path opacity="0.46" d="M349.726 499.971C349.726 499.971 262.823 379.858 387.51 334.379C471.453 301.717 500 152.342 500 152.342V499.971H349.726Z" fill="#59DC59" fill-opacity="0.59"/>
<path opacity="0.46" d="M202.121 499.971C202.121 499.971 190.059 301.311 73.142 366.909C37.472 387.919 41.793 469.97 0 441.825C0 499.971 0 499.971 0 499.971H202.121Z" fill="#59DC59" fill-opacity="0.59"/>
<path opacity="0.3" d="M363.276 110.674C370.532 100.462 368.135 86.3019 357.923 79.0463C347.711 71.7907 333.551 74.1873 326.295 84.3993C319.04 94.6112 321.436 108.771 331.648 116.027C341.86 123.283 356.021 120.886 363.276 110.674Z" fill="white"/>
<path d="M113.87 375.633C129.314 375.633 141.834 374.755 141.834 373.671C141.834 372.587 129.314 371.709 113.87 371.709C98.4259 371.709 85.906 372.587 85.906 373.671C85.906 374.755 98.4259 375.633 113.87 375.633Z" fill="#022020"/>
<path d="M116.611 341.7C116.611 341.7 138.456 332.578 145.515 253.035" stroke="white" stroke-width="1.1904" stroke-miterlimit="10"/>
<path d="M154.201 257.829C144.775 261.711 143.262 269.783 143.262 269.783C143.262 269.783 151.462 269.322 156.526 260.475C157.414 258.923 155.854 257.148 154.201 257.829Z" fill="white"/>
<path d="M134.805 255.961C143.317 261.57 143.262 269.783 143.262 269.783C143.262 269.783 135.3 267.766 132.018 258.115C131.443 256.423 133.312 254.978 134.805 255.961Z" fill="white"/>
<path d="M152.362 278.114C142.594 281.029 140.277 288.908 140.277 288.908C140.277 288.908 148.482 289.274 154.409 280.98C155.448 279.526 154.075 277.603 152.362 278.114Z" fill="white"/>
<path d="M133.252 274.307C141.157 280.743 140.277 288.909 140.277 288.909C140.277 288.909 132.558 286.102 130.263 276.17C129.86 274.428 131.866 273.179 133.252 274.307Z" fill="white"/>
<path d="M149.567 295.476C139.61 297.66 136.716 305.346 136.716 305.346C136.716 305.346 144.872 306.318 151.396 298.485C152.541 297.112 151.313 295.093 149.567 295.476Z" fill="white"/>
<path d="M130.791 290.265C138.198 297.268 136.717 305.347 136.717 305.347C136.717 305.347 129.227 301.977 127.673 291.902C127.4 290.135 129.492 289.037 130.791 290.265Z" fill="white"/>
<path d="M144.137 238.138C140.51 247.665 145.356 254.296 145.356 254.296C145.356 254.296 150.636 248.005 147.657 238.256C147.134 236.547 144.773 236.467 144.137 238.138Z" fill="white"/>
<path d="M113.87 385.361C113.87 385.361 68.1828 327.06 113.87 243.976C113.87 385.361 113.87 385.361 113.87 385.361Z" fill="#6DB26D"/>
<path d="M113.87 385.361C113.87 385.361 159.557 327.06 113.87 243.976C113.87 385.361 113.87 385.361 113.87 385.361Z" fill="#1EC131"/>
<path d="M120.197 383.309C120.197 383.309 105.727 340.526 148.828 301.993C120.197 383.309 120.197 383.309 120.197 383.309Z" fill="#6DB26D"/>
<path d="M120.197 383.309C120.197 383.309 158.28 359.029 148.828 301.993C120.197 383.309 120.197 383.309 120.197 383.309Z" fill="#1EC131"/>
<path d="M131.616 403.753C131.616 403.753 102.437 399.379 69.688 305.393" stroke="white" stroke-width="1.1904" stroke-miterlimit="10"/>
<path d="M60.6499 313.832C73.2239 315.653 77.5109 324.949 77.5109 324.949C77.5109 324.949 67.4599 326.889 58.6469 317.737C57.1009 316.133 58.4459 313.513 60.6499 313.832Z" fill="white"/>
<path d="M83.5239 305.669C74.9439 315.039 77.5109 324.949 77.5109 324.949C77.5109 324.949 86.5189 320.087 87.5479 307.424C87.7279 305.203 85.0279 304.026 83.5239 305.669Z" fill="white"/>
<path d="M69.0488 337.789C81.7418 338.338 86.9408 347.155 86.9408 347.155C86.9408 347.155 77.1358 350.095 67.4478 341.876C65.7488 340.435 66.8228 337.693 69.0488 337.789Z" fill="white"/>
<path d="M90.9858 327.369C83.3908 337.554 86.9408 347.155 86.9408 347.155C86.9408 347.155 95.4148 341.413 95.1658 328.71C95.1218 326.483 92.3178 325.583 90.9858 327.369Z" fill="white"/>
<path d="M77.7118 357.921C90.4108 357.529 96.2478 365.938 96.2478 365.938C96.2478 365.938 86.6868 369.596 76.4168 362.116C74.6168 360.804 75.4858 357.99 77.7118 357.921Z" fill="white"/>
<path d="M98.8189 345.906C91.9979 356.625 96.2489 365.938 96.2489 365.938C96.2489 365.938 104.275 359.584 103.086 346.935C102.878 344.716 100.015 344.026 98.8189 345.906Z" fill="white"/>
<path d="M66.8189 286.969C74.1029 297.379 70.2649 306.869 70.2649 306.869C70.2649 306.869 61.9679 300.873 62.6009 288.184C62.7109 285.959 65.5409 285.144 66.8189 286.969Z" fill="white"/>
<path d="M113.87 375.632C98.426 375.632 85.906 374.754 85.906 373.67C85.906 416.888 98.98 469.451 98.98 469.451C98.98 470.534 105.646 471.413 113.869 471.413C122.092 471.413 128.758 470.535 128.758 469.451C128.758 469.451 141.832 416.888 141.832 373.67C141.833 374.754 129.313 375.632 113.87 375.632Z" fill="#073E1E"/>
<path d="M123.858 375.501C123.286 386.752 120.871 422.372 111.741 471.391C112.438 471.404 113.145 471.413 113.87 471.413C122.093 471.413 128.759 470.535 128.759 469.451C128.759 469.451 141.833 416.888 141.833 373.67C141.833 374.507 134.362 375.219 123.858 375.501Z" fill="#022020"/>
<path d="M426.21 341.747H341.484V475.854H426.21V341.747Z" fill="#9FB3A1"/>
<path d="M426.211 341.747H402.429V475.854H426.211V341.747Z" fill="#022020"/>
<path d="M397.756 443.5H346.371V468.809H397.756V443.5Z" stroke="white" stroke-width="0.94" stroke-miterlimit="10"/>
<path d="M378.271 456.377C378.271 456.887 377.857 457.301 377.347 457.301H366.443C365.933 457.301 365.519 456.887 365.519 456.377C365.519 455.867 365.933 455.453 366.443 455.453H377.347C377.857 455.453 378.271 455.867 378.271 456.377Z" fill="white"/>
<path d="M397.756 413.063H346.371V438.372H397.756V413.063Z" stroke="white" stroke-width="0.94" stroke-miterlimit="10"/>
<path d="M378.271 425.941C378.271 426.451 377.857 426.865 377.347 426.865H366.443C365.933 426.865 365.519 426.451 365.519 425.941C365.519 425.431 365.933 425.017 366.443 425.017H377.347C377.857 425.017 378.271 425.431 378.271 425.941Z" fill="white"/>
<path d="M397.756 382.627H346.371V407.936H397.756V382.627Z" stroke="white" stroke-width="0.94" stroke-miterlimit="10"/>
<path d="M378.271 395.505C378.271 396.015 377.857 396.429 377.347 396.429H366.443C365.933 396.429 365.519 396.015 365.519 395.505C365.519 394.995 365.933 394.581 366.443 394.581H377.347C377.857 394.581 378.271 394.995 378.271 395.505Z" fill="white"/>
<path d="M397.756 352.192H346.371V377.501H397.756V352.192Z" stroke="white" stroke-width="0.94" stroke-miterlimit="10"/>
<path d="M378.271 365.07C378.271 365.58 377.857 365.994 377.347 365.994H366.443C365.933 365.994 365.519 365.58 365.519 365.07C365.519 364.56 365.933 364.146 366.443 364.146H377.347C377.857 364.145 378.271 364.559 378.271 365.07Z" fill="white"/>
<path d="M341.484 341.747L356.806 328.6H426.21V341.747H341.484Z" fill="#1EC131"/>
<path d="M404.32 333.094C404.32 333.804 403.744 334.38 403.034 334.38H358.677C357.966 334.38 357.391 333.804 357.391 333.094C357.391 332.384 357.967 331.808 358.677 331.808H403.034C403.744 331.808 404.32 332.384 404.32 333.094Z" fill="white"/>
<path d="M401.03 337.43C401.03 338.14 400.454 338.716 399.744 338.716H355.387C354.677 338.716 354.101 338.14 354.101 337.43C354.101 336.72 354.677 336.144 355.387 336.144H399.744C400.454 336.144 401.03 336.72 401.03 337.43Z" fill="white"/>
<path d="M380.219 341.747L395.541 328.6H426.21V341.747H380.219Z" fill="#073E1E"/>
<path d="M500 427.871H0V499.971H500V427.871Z" fill="#D3D1C5"/>
</g>
<path d="M371.02 319.497L307.937 308.268L309.589 426.506H252.121V233.626L265.702 214.029L311.57 229.332L368.378 294.066L371.02 319.497Z" fill="#073E1E"/>
<path d="M331.717 276.561C331.717 276.561 334.404 291.754 341.978 301.001" stroke="#022020" stroke-miterlimit="10"/>
<path d="M307.937 308.268V283.828" stroke="#022020" stroke-miterlimit="10"/>
<path d="M133.222 319.497L196.305 308.268L194.653 426.506H252.121V233.626L238.54 214.029L192.672 229.332L135.864 294.066L133.222 319.497Z" fill="#073E1E"/>
<path d="M172.525 276.561C172.525 276.561 169.838 291.754 162.264 301.001" stroke="#022020" stroke-miterlimit="10"/>
<path d="M196.305 308.268V283.828" stroke="#022020" stroke-miterlimit="10"/>
<path d="M257.629 250.991C260.504 245.237 262.69 237.919 262.69 237.919L252.121 233.625L241.552 237.919C241.552 237.919 243.738 245.236 246.613 250.991C239.25 371.02 238.25 371.02 238.25 371.02L252.121 379.938L265.993 371.02C265.993 371.02 264.993 371.02 257.629 250.991Z" fill="#6DB26D"/>
<path d="M268.305 221.336L310.91 234.708" stroke="#022020" stroke-miterlimit="10"/>
<path d="M235.938 221.336L193.332 234.708" stroke="#022020" stroke-miterlimit="10"/>
<path d="M196.15 319.332L194.653 426.506H252.121H309.589L309.224 400.371C197.602 429.37 196.151 319.364 196.15 319.332Z" fill="#022020"/>
<path d="M252.121 233.626C252.121 233.626 262.078 246.176 274.934 246.837C276.561 235.608 268.304 223.388 268.304 223.388L252.121 233.626Z" fill="#022020"/>
<path d="M252.121 233.626C252.121 233.626 242.164 246.176 229.308 246.837C227.681 235.608 235.938 223.388 235.938 223.388L252.121 233.626Z" fill="#022020"/>
<path d="M235.277 132.121C235.277 132.121 247.167 118.47 264.561 119.571C281.956 120.672 276.876 125.516 270.829 126.397C286.58 129.48 288.121 137.186 291.644 147.755C295.167 158.324 280.275 153.26 278.253 151.058C277.112 159.645 274.249 171.315 274.249 171.315L229.772 160.829L219.423 162.508L218.267 147.756C218.267 147.756 204.45 157.664 205.111 151.499C205.772 145.334 211.937 134.985 219.863 134.104C214.799 131.242 222.644 125.957 225.988 133.003C229.772 119.571 237.479 122.654 235.277 132.121Z" fill="#073E1E"/>
<path d="M265.993 203.24L252.121 210.011L238.25 203.24L235.938 223.387C235.938 223.387 240.232 231.809 252.121 233.625C264.011 231.809 268.305 223.387 268.305 223.387L265.993 203.24Z" fill="#D5D6D5"/>
<path d="M266.668 209.122L265.993 203.24L252.121 210.011L238.25 203.24L236.302 220.213C254.596 224.963 263.947 213.358 266.668 209.122Z" fill="#849284"/>
<path d="M268.339 149.158C258.893 141.745 245.349 141.745 235.902 149.158C229.853 153.905 224.763 162.089 226.249 176.158C229.552 207.424 243.643 215.791 252.12 215.791C260.597 215.791 274.689 207.424 277.992 176.158C279.479 162.088 274.388 153.904 268.339 149.158Z" fill="#D5D6D5"/>
<path d="M272.776 175.255C273.029 178.029 270.07 180.565 266.167 180.92C262.264 181.275 258.896 179.315 258.644 176.541C258.391 173.767 261.35 171.231 265.253 170.876C269.156 170.521 272.523 172.482 272.776 175.255Z" fill="#EFEEE4"/>
<path d="M258.644 176.542C258.391 173.768 261.35 171.232 265.253 170.877C269.156 170.522 272.524 172.482 272.776 175.256" stroke="#073E1E" stroke-miterlimit="10" stroke-linecap="round"/>
<path d="M265.71 172.507C262.883 172.507 260.591 174.799 260.591 177.626C260.591 178.482 260.821 179.276 261.192 179.985C262.536 180.721 264.287 181.091 266.167 180.92C267.844 180.767 269.344 180.21 270.493 179.406C270.7 178.849 270.829 178.254 270.829 177.626C270.829 174.799 268.537 172.507 265.71 172.507Z" fill="#073E1E"/>
<path d="M231.466 175.255C231.213 178.029 234.172 180.565 238.075 180.92C241.977 181.275 245.346 179.315 245.598 176.541C245.851 173.767 242.892 171.231 238.989 170.876C235.087 170.521 231.719 172.482 231.466 175.255Z" fill="#EFEEE4"/>
<path d="M245.598 176.542C245.851 173.768 242.892 171.232 238.989 170.877C235.087 170.522 231.718 172.482 231.466 175.256" stroke="#073E1E" stroke-miterlimit="10" stroke-linecap="round"/>
<path d="M238.532 172.507C241.359 172.507 243.651 174.799 243.651 177.626C243.651 178.482 243.421 179.276 243.05 179.985C241.706 180.721 239.955 181.091 238.075 180.92C236.398 180.767 234.898 180.21 233.749 179.406C233.542 178.849 233.413 178.254 233.413 177.626C233.413 174.799 235.705 172.507 238.532 172.507Z" fill="#073E1E"/>
<path d="M261.082 160.488C263.83 160.792 268.41 161.961 272.307 166.148C273.076 166.974 274.446 166.697 274.838 165.639C274.963 165.303 274.966 164.939 274.846 164.602C274.148 162.646 271.113 156.064 261.627 155.041C260.023 154.868 258.629 156.156 258.629 157.769C258.629 159.172 259.687 160.334 261.082 160.488Z" fill="#073E1E"/>
<path d="M243.16 160.488C240.412 160.792 235.832 161.961 231.935 166.148C231.166 166.974 229.795 166.697 229.404 165.639C229.28 165.303 229.276 164.939 229.396 164.602C230.094 162.646 233.128 156.064 242.615 155.041C244.219 154.868 245.613 156.156 245.613 157.769C245.613 159.172 244.555 160.334 243.16 160.488Z" fill="#073E1E"/>
<path d="M260.591 199.607L252.122 196.083L243.653 199.607C243.653 199.607 241.859 205.552 245.615 204.341C249.371 203.13 249.591 202.469 252.123 202.579C254.655 202.469 254.875 203.13 258.631 204.341C262.384 205.552 260.591 199.607 260.591 199.607Z" fill="#073E1E"/>
<path d="M252.121 194.543V197.295C252.121 197.295 247.057 201.919 239.02 200.818C239.791 194.102 245.295 191.02 247.717 190.69C250.139 190.36 252.121 194.543 252.121 194.543Z" fill="#073E1E"/>
<path d="M252.121 194.543V197.295C252.121 197.295 257.185 201.919 265.222 200.818C264.451 194.102 258.947 191.02 256.525 190.69C254.103 190.36 252.121 194.543 252.121 194.543Z" fill="#073E1E"/>
<path d="M241.662 142.05C241.662 142.05 254.162 154.838 260.59 152.378C267.018 149.918 263.02 141.369 263.02 141.369C263.02 141.369 247.827 139.208 241.662 142.05Z" fill="#073E1E"/>
<path d="M250 151.497C250 151.497 256.238 162.506 250 162.506C243.761 162.507 250 151.497 250 151.497Z" fill="#EFEEE4"/>
<path d="M255.919 181.883C254.873 178.8 254.873 173.688 254.873 173.688L252.121 173.185L249.369 173.688C249.369 173.688 249.369 178.8 248.323 181.883C247.277 184.966 243.974 188.488 244.525 190.14C245.076 191.791 246.176 191.241 248.378 193.002C250.58 194.763 252.121 194.543 252.121 194.543C252.121 194.543 253.662 194.763 255.864 193.002C258.066 191.241 259.167 191.791 259.717 190.14C260.268 188.488 256.965 184.965 255.919 181.883Z" fill="url(#paint0_linear_2496_4639)"/>
<path d="M258.41 191.529C259.029 191.24 259.442 190.965 259.717 190.139C260.268 188.488 256.965 184.965 255.919 181.882C254.873 178.799 254.873 173.687 254.873 173.687" stroke="#022020" stroke-width="0.5" stroke-miterlimit="10"/>
<path opacity="0.21" d="M243.223 200.9C243.223 200.9 242.998 197.956 243.651 196.525" stroke="#D3D1C5" stroke-miterlimit="10"/>
<path opacity="0.21" d="M248.004 199.717C248.004 199.717 247.52 197.953 248.004 196.083" stroke="#D3D1C5" stroke-miterlimit="10"/>
<path opacity="0.21" d="M261.019 200.9C261.019 200.9 261.244 197.956 260.591 196.525" stroke="#D3D1C5" stroke-miterlimit="10"/>
<path opacity="0.21" d="M256.238 199.717C256.238 199.717 256.722 197.953 256.238 196.083" stroke="#D3D1C5" stroke-miterlimit="10"/>
<path d="M206.543 236.928C206.543 236.928 208.855 223.387 181.442 206.543C176.818 216.452 183.583 234.585 206.543 236.928Z" fill="#022020"/>
<path opacity="0.41" d="M237.461 153.919C235.221 157.483 227.571 167.13 229.993 178.139C232.415 189.148 232.121 195.344 231.277 197.53C228.985 192.02 227.185 185.007 226.25 176.156C224.764 162.086 229.854 153.902 235.903 149.156C235.903 149.158 239.7 150.355 237.461 153.919Z" fill="#022020"/>
<path d="M197.406 234.507C197.406 234.507 223.167 213.81 228.011 203.241C232.855 192.672 228.892 183.531 228.011 176.542C227.13 169.553 228.451 157.222 236.818 151.498C238.579 149.076 234.616 147.755 234.616 147.755C234.616 147.755 235.497 144.452 233.955 142.911C232.414 141.37 229.551 142.085 227.349 143.599C224.487 142.031 217.881 145.333 215.239 151.498C212.597 157.663 209.514 175.498 209.074 184.746C208.634 193.994 188.157 212.489 183.533 215.792C178.91 219.094 186.176 237.589 197.406 234.507Z" fill="#D5D6D5"/>
<path d="M234.617 147.754C234.617 147.754 226.47 147.974 222.287 161.626" stroke="#022020" stroke-width="0.5" stroke-miterlimit="10"/>
<path d="M227.35 143.598C227.35 143.598 219.203 149.075 217.662 157.002" stroke="#022020" stroke-width="0.5" stroke-miterlimit="10"/>
<path d="M210.176 203.681C210.176 203.681 204.892 208.745 208.855 214.03" stroke="#022020" stroke-width="0.5" stroke-miterlimit="10"/>
<path d="M181.442 206.543C181.442 206.543 181.772 228.341 206.543 236.928L133.222 319.497C110.78 319.497 98.3071 293.545 112.321 276.017C134.372 248.435 162.688 216.188 181.442 206.543Z" fill="#073E1E"/>
<path d="M162.264 220.727C169.237 214.441 175.777 209.456 181.442 206.543C181.442 206.543 181.772 228.341 206.543 236.928L191.47 253.902C172.846 246.963 165.179 230.157 162.264 220.727Z" fill="#022020"/>
<path d="M206.543 236.928L152.308 298.004" stroke="#022020" stroke-miterlimit="10"/>
<path d="M109.988 279.415C122.162 280.98 131.571 291.375 131.571 303.974C131.571 309.497 129.762 314.596 126.707 318.715C109.796 314.601 101.009 294.829 109.988 279.415Z" fill="#022020"/>
<path d="M297.699 236.928C297.699 236.928 295.387 223.387 322.8 206.543C327.424 216.452 320.659 234.585 297.699 236.928Z" fill="#022020"/>
<path opacity="0.41" d="M266.782 153.919C269.022 157.483 276.672 167.13 274.25 178.139C271.828 189.148 272.122 195.344 272.966 197.53C275.258 192.02 277.058 185.007 277.993 176.156C279.479 162.086 274.389 153.902 268.34 149.156C268.339 149.158 264.542 150.355 266.782 153.919Z" fill="#022020"/>
<path d="M306.837 234.507C306.837 234.507 281.076 213.81 276.232 203.241C271.388 192.672 275.351 183.531 276.232 176.542C277.113 169.553 275.792 157.222 267.425 151.498C265.664 149.076 269.627 147.755 269.627 147.755C269.627 147.755 268.746 144.452 270.288 142.911C271.829 141.37 274.692 142.085 276.893 143.599C279.755 142.031 286.361 145.333 289.003 151.498C291.645 157.663 294.728 175.498 295.168 184.746C295.608 193.994 316.085 212.489 320.709 215.792C325.332 219.094 318.066 237.589 306.837 234.507Z" fill="#D5D6D5"/>
<path d="M269.626 147.754C269.626 147.754 277.773 147.974 281.956 161.626" stroke="#022020" stroke-width="0.5" stroke-miterlimit="10"/>
<path d="M276.892 143.598C276.892 143.598 285.039 149.075 286.58 157.002" stroke="#022020" stroke-width="0.5" stroke-miterlimit="10"/>
<path d="M294.066 203.681C294.066 203.681 299.35 208.745 295.387 214.03" stroke="#022020" stroke-width="0.5" stroke-miterlimit="10"/>
<path d="M322.8 206.543C322.8 206.543 322.47 228.341 297.699 236.928L371.02 319.497C393.462 319.497 405.935 293.545 391.921 276.017C369.87 248.435 341.554 216.188 322.8 206.543Z" fill="#073E1E"/>
<path d="M341.978 220.727C335.005 214.441 328.464 209.456 322.8 206.543C322.8 206.543 322.47 228.341 297.699 236.928L312.772 253.902C331.396 246.963 339.064 230.157 341.978 220.727Z" fill="#022020"/>
<path d="M297.699 236.928L351.934 298.004" stroke="#022020" stroke-miterlimit="10"/>
<path d="M394.254 279.415C382.081 280.98 372.672 291.375 372.672 303.974C372.672 309.497 374.481 314.596 377.536 318.715C394.446 314.601 403.233 294.829 394.254 279.415Z" fill="#022020"/>
<path opacity="0.27" d="M302.818 221.736C310.4 219.362 313.611 216.155 315.491 211.444C307.781 204.526 295.507 191.883 295.167 184.745C294.727 175.497 291.644 157.662 289.002 151.497C286.36 145.332 279.754 142.029 276.892 143.598C274.69 142.084 271.828 141.369 270.287 142.91C268.746 144.451 269.626 147.754 269.626 147.754C269.626 147.754 269.401 147.834 269.095 147.974C272.525 150.563 279.995 157.984 279.314 173.185C278.433 192.855 292.855 224.855 302.818 221.736Z" fill="white"/>
<path opacity="0.21" d="M354.457 437.912L350.212 444.103H281.735L280.182 449.658C280.182 449.658 280.761 455.454 263.633 455.454H219.151C214.194 455.454 210.175 451.435 210.175 446.478V444.043H139.03V436.597L154.769 427.891L344.797 432.696L354.457 437.912Z" fill="#022020"/>
<path d="M354.457 432.696H149.07V440.497H354.457V432.696Z" fill="#D3D1C5"/>
<path d="M341.636 422.646H251.764H161.891L149.07 432.696H251.764H354.457L341.636 422.646Z" fill="white"/>
<path d="M342.534 427.891H330.841V429.671H342.534V427.891Z" fill="#D8D5C3"/>
<path d="M342.534 425.844H330.841V427.87H342.534V425.844Z" fill="#EFEEE4"/>
<path d="M328.35 427.891H316.657V429.671H328.35V427.891Z" fill="#D8D5C3"/>
<path d="M328.35 425.844H316.657V427.87H328.35V425.844Z" fill="#EFEEE4"/>
<path d="M314.166 427.891H302.473V429.671H314.166V427.891Z" fill="#D8D5C3"/>
<path d="M314.166 425.844H302.473V427.87H314.166V425.844Z" fill="#EFEEE4"/>
<path d="M299.982 427.891H288.289V429.671H299.982V427.891Z" fill="#D8D5C3"/>
<path d="M299.982 425.844H288.289V427.87H299.982V425.844Z" fill="#EFEEE4"/>
<path d="M285.798 427.891H274.105V429.671H285.798V427.891Z" fill="#D8D5C3"/>
<path d="M285.798 425.844H274.105V427.87H285.798V425.844Z" fill="#EFEEE4"/>
<path d="M271.613 427.891H259.92V429.671H271.613V427.891Z" fill="#D8D5C3"/>
<path d="M271.613 425.844H259.92V427.87H271.613V425.844Z" fill="#EFEEE4"/>
<path d="M257.429 427.891H245.736V429.671H257.429V427.891Z" fill="#D8D5C3"/>
<path d="M257.429 425.844H245.736V427.87H257.429V425.844Z" fill="#EFEEE4"/>
<path d="M243.245 427.891H231.552V429.671H243.245V427.891Z" fill="#D8D5C3"/>
<path d="M243.245 425.844H231.552V427.87H243.245V425.844Z" fill="#EFEEE4"/>
<path d="M229.061 427.891H217.368V429.671H229.061V427.891Z" fill="#D8D5C3"/>
<path d="M229.061 425.844H217.368V427.87H229.061V425.844Z" fill="#EFEEE4"/>
<path d="M214.877 427.891H203.184V429.671H214.877V427.891Z" fill="#D8D5C3"/>
<path d="M214.877 425.844H203.184V427.87H214.877V425.844Z" fill="#EFEEE4"/>
<path d="M200.693 427.891H189V429.671H200.693V427.891Z" fill="#D8D5C3"/>
<path d="M200.693 425.844H189V427.87H200.693V425.844Z" fill="#EFEEE4"/>
<path d="M186.508 427.891H174.815V429.671H186.508V427.891Z" fill="#D8D5C3"/>
<path d="M186.508 425.844H174.815V427.87H186.508V425.844Z" fill="#EFEEE4"/>
<path d="M172.324 427.891H160.631V429.671H172.324V427.891Z" fill="#D8D5C3"/>
<path d="M172.324 425.844H160.631V427.87H172.324V425.844Z" fill="#EFEEE4"/>
<path d="M342.534 422.78H330.841V424.56H342.534V422.78Z" fill="#D8D5C3"/>
<path d="M342.534 420.733H330.841V422.759H342.534V420.733Z" fill="#EFEEE4"/>
<path d="M328.35 422.78H316.657V424.56H328.35V422.78Z" fill="#D8D5C3"/>
<path d="M328.35 420.733H316.657V422.759H328.35V420.733Z" fill="#EFEEE4"/>
<path d="M314.166 422.78H302.473V424.56H314.166V422.78Z" fill="#D8D5C3"/>
<path d="M314.166 420.733H302.473V422.759H314.166V420.733Z" fill="#EFEEE4"/>
<path d="M299.982 422.78H288.289V424.56H299.982V422.78Z" fill="#D8D5C3"/>
<path d="M299.982 420.733H288.289V422.759H299.982V420.733Z" fill="#EFEEE4"/>
<path d="M285.798 422.78H274.105V424.56H285.798V422.78Z" fill="#D8D5C3"/>
<path d="M285.798 420.733H274.105V422.759H285.798V420.733Z" fill="#EFEEE4"/>
<path d="M271.613 422.78H259.92V424.56H271.613V422.78Z" fill="#D8D5C3"/>
<path d="M271.613 420.733H259.92V422.759H271.613V420.733Z" fill="#EFEEE4"/>
<path d="M257.429 422.78H245.736V424.56H257.429V422.78Z" fill="#D8D5C3"/>
<path d="M257.429 420.733H245.736V422.759H257.429V420.733Z" fill="#EFEEE4"/>
<path d="M243.245 422.78H231.552V424.56H243.245V422.78Z" fill="#D8D5C3"/>
<path d="M243.245 420.733H231.552V422.759H243.245V420.733Z" fill="#EFEEE4"/>
<path d="M229.061 422.78H217.368V424.56H229.061V422.78Z" fill="#D8D5C3"/>
<path d="M229.061 420.733H217.368V422.759H229.061V420.733Z" fill="#EFEEE4"/>
<path d="M214.877 422.78H203.184V424.56H214.877V422.78Z" fill="#D8D5C3"/>
<path d="M214.877 420.733H203.184V422.759H214.877V420.733Z" fill="#EFEEE4"/>
<path d="M200.693 422.78H189V424.56H200.693V422.78Z" fill="#D8D5C3"/>
<path d="M200.693 420.733H189V422.759H200.693V420.733Z" fill="#EFEEE4"/>
<path d="M186.508 422.78H174.815V424.56H186.508V422.78Z" fill="#D8D5C3"/>
<path d="M186.508 420.733H174.815V422.759H186.508V420.733Z" fill="#EFEEE4"/>
<path d="M172.324 422.78H160.631V424.56H172.324V422.78Z" fill="#D8D5C3"/>
<path d="M172.324 420.733H160.631V422.759H172.324V420.733Z" fill="#EFEEE4"/>
<path d="M354.457 436.597H149.07V437.912H354.457V436.597Z" fill="white"/>
<path d="M320.415 374.982H182.554C177.513 374.982 173.427 370.896 173.427 365.855V260.443C173.427 255.402 177.513 251.316 182.554 251.316H320.415C325.456 251.316 329.542 255.402 329.542 260.443V365.855C329.542 370.896 325.456 374.982 320.415 374.982Z" fill="#D3D1C5"/>
<path d="M320.415 383.043H182.554C177.513 383.043 173.427 378.957 173.427 373.916V268.504C173.427 263.463 177.513 259.377 182.554 259.377H320.415C325.456 259.377 329.542 263.463 329.542 268.504V373.916C329.542 378.957 325.456 383.043 320.415 383.043Z" fill="white"/>
<path d="M288.714 289.6H214.283V349.064H288.714V289.6Z" fill="#D3D1C5"/>
<path d="M222.374 364.031H185.158V374.397H222.374V364.031Z" fill="#D3D1C5"/>
<path d="M198.102 367.267H189.203V371.312H198.102V367.267Z" fill="#99947E"/>
<path d="M211.452 367.267H202.553V371.312H211.452V367.267Z" fill="#99947E"/>
<path d="M220.497 316.559H220.476C219.898 316.559 219.43 316.091 219.43 315.513V295.644C219.43 295.066 219.898 294.598 220.476 294.598H220.497C221.075 294.598 221.543 295.066 221.543 295.644V315.513C221.543 316.091 221.075 316.559 220.497 316.559Z" fill="#99947E"/>
<path d="M226.385 316.559H226.364C225.786 316.559 225.318 316.091 225.318 315.513V295.644C225.318 295.066 225.786 294.598 226.364 294.598H226.385C226.963 294.598 227.431 295.066 227.431 295.644V315.513C227.431 316.091 226.963 316.559 226.385 316.559Z" fill="#99947E"/>
<path d="M232.272 316.559H232.251C231.673 316.559 231.205 316.091 231.205 315.513V295.644C231.205 295.066 231.673 294.598 232.251 294.598H232.272C232.85 294.598 233.318 295.066 233.318 295.644V315.513C233.319 316.091 232.85 316.559 232.272 316.559Z" fill="#99947E"/>
<path d="M238.16 316.559H238.139C237.561 316.559 237.093 316.091 237.093 315.513V295.644C237.093 295.066 237.561 294.598 238.139 294.598H238.16C238.738 294.598 239.206 295.066 239.206 295.644V315.513C239.206 316.091 238.738 316.559 238.16 316.559Z" fill="#99947E"/>
<path d="M244.048 316.559H244.027C243.449 316.559 242.981 316.091 242.981 315.513V295.644C242.981 295.066 243.449 294.598 244.027 294.598H244.048C244.626 294.598 245.094 295.066 245.094 295.644V315.513C245.094 316.091 244.626 316.559 244.048 316.559Z" fill="#99947E"/>
<path d="M249.936 316.559H249.915C249.337 316.559 248.869 316.091 248.869 315.513V295.644C248.869 295.066 249.337 294.598 249.915 294.598H249.936C250.514 294.598 250.982 295.066 250.982 295.644V315.513C250.982 316.091 250.514 316.559 249.936 316.559Z" fill="#99947E"/>
<path d="M301.606 351.751H301.711C304.586 351.751 306.917 349.42 306.917 346.545V295.875C306.917 293 304.586 290.669 301.711 290.669H301.606C298.731 290.669 296.4 293 296.4 295.875V346.545C296.4 349.42 298.731 351.751 301.606 351.751Z" fill="#D3D1C5"/>
<path d="M264.529 349.064H241.649V449.657H264.529V349.064Z" fill="#D3D1C5"/>
<path d="M264.529 349.064H241.649V359.573H264.529V349.064Z" fill="#99947E"/>
<path d="M280.183 449.657H226.102C223.001 449.657 220.487 447.143 220.487 444.042C220.487 440.941 223.001 438.427 226.102 438.427H280.183C283.284 438.427 285.798 440.941 285.798 444.042C285.797 447.143 283.284 449.657 280.183 449.657Z" fill="#99947E"/>
<path d="M252.956 61.9102L266.972 66.5342L266.668 15.0112H250L256.453 54.3142L242.981 48.3692L249.364 86.8152L240.608 83.0472L252.121 103.855L263.634 83.0472L254.625 86.9242L252.956 61.9102Z" fill="#6DB26D"/>
<path d="M321.844 86.9642L328.191 100.289L365.212 64.4542L353.691 52.4102L329.751 84.2402L324.734 70.3952L301.364 101.584L298.034 92.6522L290.956 115.355L313.95 109.291L304.922 105.461L321.844 86.9642Z" fill="#ABC7AB"/>
<path d="M338.432 140.711L337.819 153.632L381.253 141.279L377.34 127.204L345.668 141.881L347.525 129.109L316.559 143.525L317.685 135.247L302.818 149.854L323.091 154.69L317.702 147.993L338.432 140.711Z" fill="#6DB26D"/>
<path d="M182.398 86.9642L176.051 100.289L139.03 64.4542L150.551 52.4102L174.492 84.2402L179.508 70.3952L202.878 101.584L206.208 92.6522L213.286 115.355L190.292 109.291L199.32 105.461L182.398 86.9642Z" fill="#ABC7AB"/>
<path d="M165.81 140.711L166.423 153.632L122.989 141.279L126.902 127.204L158.574 141.881L156.717 129.109L187.683 143.525L186.557 135.247L201.424 149.854L181.151 154.69L186.54 147.993L165.81 140.711Z" fill="#6DB26D"/>
<defs>
<linearGradient id="paint0_linear_2496_4639" x1="252.121" y1="175.498" x2="252.121" y2="201.062" gradientUnits="userSpaceOnUse">
<stop stop-color="#D5D6D5" stop-opacity="0.04"/>
<stop offset="1" stop-color="#7FB67F"/>
</linearGradient>
</defs>
</svg>
