<svg width="1140" height="1080" viewBox="0 0 1140 1080" fill="none" xmlns="http://www.w3.org/2000/svg">
<path d="M695.963 0H442.517C442.517 382.384 128.244 382.384 0 382.384V509.845C250.912 509.845 540.854 443.961 570.253 128.475C593.824 441.173 887.568 509.845 1140 509.845V382.384C956.759 382.384 695.963 379.85 695.963 0Z" fill="#66FD66"/>
<path d="M695.963 1080H442.517C442.517 697.616 128.244 697.616 0 697.616V570.155C250.912 570.155 540.854 636.039 570.253 951.525C593.824 638.827 887.568 570.155 1140 570.155V697.616C956.759 697.616 695.963 700.15 695.963 1080Z" fill="#66FD66"/>
</svg>
