<svg width="22" height="22" viewBox="0 0 22 22" fill="none" xmlns="http://www.w3.org/2000/svg">
<path d="M13.278 6.2827C13.5722 5.99111 13.5743 5.51624 13.2827 5.22205C12.9911 4.92785 12.5162 4.92573 12.222 5.21732L10.4273 6.99609C9.75135 7.66604 9.19886 8.21359 8.80706 8.70146C8.39963 9.20879 8.1047 9.72373 8.02591 10.3418C7.99137 10.6129 7.99137 10.8871 8.02591 11.1582C8.1047 11.7763 8.39963 12.2912 8.80706 12.7985C9.19886 13.2864 9.75132 13.8339 10.4273 14.5039L12.222 16.2827C12.5162 16.5743 12.9911 16.5722 13.2827 16.278C13.5743 15.9838 13.5722 15.5089 13.278 15.2173L11.515 13.47C10.7995 12.7609 10.3087 12.2728 9.9766 11.8593C9.654 11.4576 9.54333 11.1996 9.51387 10.9685C9.49538 10.8234 9.49538 10.6766 9.51387 10.5315C9.54333 10.3004 9.654 10.0424 9.9766 9.64071C10.3087 9.22718 10.7995 8.73914 11.515 8.03001L13.278 6.2827Z" fill="#1E1E1E"/>
<path fill-rule="evenodd" clip-rule="evenodd" d="M10.75 0C4.81294 0 0 4.81294 0 10.75C0 16.6871 4.81294 21.5 10.75 21.5C16.6871 21.5 21.5 16.6871 21.5 10.75C21.5 4.81294 16.6871 0 10.75 0ZM1.5 10.75C1.5 5.64137 5.64137 1.5 10.75 1.5C15.8586 1.5 20 5.64137 20 10.75C20 15.8586 15.8586 20 10.75 20C5.64137 20 1.5 15.8586 1.5 10.75Z" fill="#1E1E1E"/>
</svg>
