<svg width="422" height="137" viewBox="0 0 422 137" fill="none" xmlns="http://www.w3.org/2000/svg">
<path d="M31.1913 110.291L2.43669 39.166H15.1375L37.5925 96.7769H33.1218L55.7801 39.166H68.2776L39.3198 110.291H31.1913ZM90.7946 111.307C85.9175 111.307 81.5145 110.223 77.5857 108.055C73.7247 105.82 70.6426 102.772 68.3395 98.9106C66.1042 95.0496 64.9865 90.7144 64.9865 85.905C64.9865 81.0956 66.1042 76.7943 68.3395 73.001C70.5749 69.1399 73.5892 66.0917 77.3825 63.8564C81.2436 61.6211 85.511 60.5034 90.1849 60.5034C94.7233 60.5034 98.7199 61.5533 102.174 63.6532C105.697 65.7531 108.44 68.6319 110.405 72.2897C112.437 75.9476 113.453 80.1134 113.453 84.7873C113.453 85.6002 113.385 86.4469 113.25 87.3275C113.182 88.1403 113.046 89.0548 112.843 90.0709H72.8102V80.9263H107.052L102.886 84.5841C102.75 81.6037 102.174 79.0974 101.158 77.0652C100.142 75.0331 98.686 73.4751 96.7893 72.3913C94.9604 71.3075 92.6912 70.7656 89.9817 70.7656C87.1367 70.7656 84.6643 71.3753 82.5644 72.5946C80.4646 73.8138 78.8389 75.5411 77.6873 77.7765C76.5358 79.9441 75.96 82.552 75.96 85.6002C75.96 88.6484 76.5697 91.324 77.7889 93.6271C79.0082 95.9302 80.7355 97.7252 82.9709 99.0122C85.2062 100.231 87.7802 100.841 90.693 100.841C93.1992 100.841 95.5023 100.401 97.6022 99.5202C99.7698 98.6397 101.599 97.3526 103.089 95.6592L110.201 102.873C107.831 105.651 104.952 107.75 101.565 109.173C98.178 110.595 94.5879 111.307 90.7946 111.307ZM156.857 110.291V82.1456C156.857 78.8942 155.807 76.2185 153.707 74.1187C151.675 72.0188 149.033 70.9689 145.782 70.9689C143.614 70.9689 141.684 71.443 139.99 72.3913C138.297 73.3397 136.976 74.6606 136.028 76.354C135.079 78.0474 134.605 79.978 134.605 82.1456L130.236 79.707C130.236 75.9814 131.049 72.6962 132.675 69.8512C134.3 66.9385 136.536 64.6693 139.381 63.0436C142.293 61.3501 145.545 60.5034 149.135 60.5034C152.793 60.5034 156.044 61.4517 158.889 63.3484C161.734 65.1773 163.969 67.582 165.595 70.5624C167.221 73.4751 168.034 76.5233 168.034 79.707V110.291H156.857ZM123.428 110.291V61.5195H134.605V110.291H123.428ZM187.229 110.291V41.1982H198.406V110.291H187.229ZM175.545 71.6801V61.5195H210.091V71.6801H175.545ZM219.228 110.291V61.5195H230.405V110.291H219.228ZM230.405 83.1616L226.544 81.2311C226.544 75.067 227.899 70.0883 230.608 66.295C233.385 62.4339 237.551 60.5034 243.106 60.5034C245.544 60.5034 247.746 60.9437 249.71 61.8243C251.675 62.7049 253.503 64.1274 255.197 66.0917L247.881 73.6106C247.001 72.6623 246.018 71.9849 244.935 71.5785C243.851 71.1721 242.598 70.9689 241.175 70.9689C238.059 70.9689 235.485 71.951 233.453 73.9154C231.421 75.8798 230.405 78.9619 230.405 83.1616ZM282.791 111.307C277.914 111.307 273.511 110.223 269.582 108.055C265.721 105.82 262.639 102.772 260.336 98.9106C258.101 95.0496 256.983 90.7144 256.983 85.905C256.983 81.0956 258.101 76.7943 260.336 73.001C262.571 69.1399 265.586 66.0917 269.379 63.8564C273.24 61.6211 277.507 60.5034 282.181 60.5034C286.72 60.5034 290.716 61.5533 294.171 63.6532C297.693 65.7531 300.437 68.6319 302.401 72.2897C304.433 75.9476 305.449 80.1134 305.449 84.7873C305.449 85.6002 305.381 86.4469 305.246 87.3275C305.178 88.1403 305.043 89.0548 304.84 90.0709H264.807V80.9263H299.048L294.882 84.5841C294.747 81.6037 294.171 79.0974 293.155 77.0652C292.139 75.0331 290.682 73.4751 288.786 72.3913C286.957 71.3075 284.688 70.7656 281.978 70.7656C279.133 70.7656 276.661 71.3753 274.561 72.5946C272.461 73.8138 270.835 75.5411 269.684 77.7765C268.532 79.9441 267.956 82.552 267.956 85.6002C267.956 88.6484 268.566 91.324 269.785 93.6271C271.005 95.9302 272.732 97.7252 274.967 99.0122C277.203 100.231 279.777 100.841 282.689 100.841C285.196 100.841 287.499 100.401 289.599 99.5202C291.766 98.6397 293.595 97.3526 295.085 95.6592L302.198 102.873C299.827 105.651 296.948 107.75 293.561 109.173C290.174 110.595 286.584 111.307 282.791 111.307ZM338.083 111.307C333.206 111.307 328.803 110.223 324.874 108.055C321.013 105.82 317.931 102.772 315.628 98.9106C313.393 95.0496 312.275 90.7144 312.275 85.905C312.275 81.0956 313.393 76.7943 315.628 73.001C317.863 69.1399 320.878 66.0917 324.671 63.8564C328.532 61.6211 332.8 60.5034 337.473 60.5034C342.012 60.5034 346.008 61.5533 349.463 63.6532C352.985 65.7531 355.729 68.6319 357.693 72.2897C359.725 75.9476 360.741 80.1134 360.741 84.7873C360.741 85.6002 360.674 86.4469 360.538 87.3275C360.47 88.1403 360.335 89.0548 360.132 90.0709H320.099V80.9263H354.34L350.174 84.5841C350.039 81.6037 349.463 79.0974 348.447 77.0652C347.431 75.0331 345.975 73.4751 344.078 72.3913C342.249 71.3075 339.98 70.7656 337.27 70.7656C334.425 70.7656 331.953 71.3753 329.853 72.5946C327.753 73.8138 326.127 75.5411 324.976 77.7765C323.824 79.9441 323.249 82.552 323.249 85.6002C323.249 88.6484 323.858 91.324 325.077 93.6271C326.297 95.9302 328.024 97.7252 330.259 99.0122C332.495 100.231 335.069 100.841 337.981 100.841C340.488 100.841 342.791 100.401 344.891 99.5202C347.058 98.6397 348.887 97.3526 350.377 95.6592L357.49 102.873C355.119 105.651 352.24 107.75 348.853 109.173C345.466 110.595 341.876 111.307 338.083 111.307Z" fill="#191919"/>
<path d="M386.85 0H367.191C367.191 29.6666 342.812 29.6666 332.865 29.6666V39.5555C352.328 39.5555 374.819 34.4439 377.099 9.96751C378.927 34.2277 401.713 39.5555 421.294 39.5555V29.6666C407.08 29.6666 386.85 29.47 386.85 0Z" fill="#59DC59"/>
<path d="M386.85 83.79H367.191C367.191 54.1234 342.812 54.1234 332.865 54.1234V44.2345C352.328 44.2345 374.819 49.3461 377.099 73.8225C378.927 49.5623 401.713 44.2345 421.294 44.2345V54.1234C407.08 54.1234 386.85 54.32 386.85 83.79Z" fill="#59DC59"/>
</svg>
