<svg width="480" height="750" viewBox="0 0 480 750" xmlns="http://www.w3.org/2000/svg">
  <mask id="mask0" style="mask-type:luminance" maskUnits="userSpaceOnUse" x="-515" y="-42" width="1483" height="833">
    <path d="M967.189 -41.6201H-515V790.563H967.189V-41.6201Z" fill="white"/>
  </mask>
  <g mask="url(#mask0)">
    <path d="M511.413 324.54H448.699C448.699 424.508 370.933 424.508 339.199 424.508V457.831C401.287 457.831 473.032 440.606 480.307 358.128C486.14 439.877 558.826 457.831 621.288 457.831V424.508C575.947 424.508 511.413 423.846 511.413 324.54Z" fill="black"/>
    <path d="M511.413 606.888H448.699C448.699 506.921 370.933 506.921 339.199 506.921V473.598C401.287 473.598 473.032 490.823 480.307 573.3C486.14 491.551 558.826 473.598 621.288 473.598V506.921C575.947 506.921 511.413 507.583 511.413 606.888Z" fill="black"/>
    <path d="M511.413 -41.6201H448.699C448.699 58.3478 370.933 58.3478 339.199 58.3478V91.6707C401.287 91.6707 473.032 74.4459 480.307 -8.03249C486.14 73.7173 558.826 91.6707 621.288 91.6707V58.3478C575.947 58.3478 511.413 57.6852 511.413 -41.6201Z" fill="black"/>
    <path d="M511.413 240.727H448.699C448.699 140.76 370.933 140.76 339.199 140.76V107.437C401.287 107.437 473.032 124.662 480.307 207.139C486.14 125.39 558.826 107.437 621.288 107.437V140.76C575.947 140.76 511.413 141.422 511.413 240.727Z" fill="black"/>
    <path d="M174.911 324.54H112.197C112.197 424.508 34.431 424.508 2.69727 424.508V457.831C64.7849 457.831 136.53 440.606 143.805 358.128C149.638 439.877 222.324 457.831 284.787 457.831V424.508C239.445 424.508 174.911 423.846 174.911 324.54Z" fill="black"/>
    <path d="M174.911 606.888H112.197C112.197 506.921 34.431 506.921 2.69727 506.921V473.598C64.7849 473.598 136.53 490.823 143.805 573.3C149.638 491.551 222.324 473.598 284.787 473.598V506.921C239.445 506.921 174.911 507.583 174.911 606.888Z" fill="black"/>
    <path d="M174.911 -41.6201H112.197C112.197 58.3478 34.431 58.3478 2.69727 58.3478V91.6707C64.7849 91.6707 136.53 74.4459 143.805 -8.03249C149.638 73.7173 222.324 91.6707 284.787 91.6707V58.3478C239.445 58.3478 174.911 57.6852 174.911 -41.6201Z" fill="black"/>
    <path d="M174.911 240.727H112.197C112.197 140.76 34.431 140.76 2.69727 140.76V107.437C64.7849 107.437 136.53 124.662 143.805 207.139C149.638 125.39 222.324 107.437 284.787 107.437V140.76C239.445 140.76 174.911 141.422 174.911 240.727Z" fill="black"/>
    <path d="M339.222 507.621H276.508C276.508 607.589 198.742 607.589 167.008 607.589V640.912C229.095 640.912 300.84 623.687 308.115 541.209C313.948 622.958 386.634 640.912 449.098 640.912V607.589C403.755 607.589 339.222 606.927 339.222 507.621Z" fill="black"/>
    <path d="M339.222 789.969H276.508C276.508 690.001 198.742 690.001 167.008 690.001V656.678C229.095 656.678 300.84 673.903 308.115 756.38C313.948 674.632 386.634 656.678 449.098 656.678V690.001C403.755 690.001 339.222 690.663 339.222 789.969Z" fill="black"/>
    <path d="M339.222 141.461H276.508C276.508 241.429 198.742 241.429 167.008 241.429V274.752C229.095 274.752 300.84 257.527 308.115 175.049C313.948 256.798 386.634 274.752 449.098 274.752V241.429C403.755 241.429 339.222 240.767 339.222 141.461Z" fill="black"/>
    <path d="M339.222 423.807H276.508C276.508 323.84 198.742 323.84 167.008 323.84V290.517C229.095 290.517 300.84 307.742 308.115 390.219C313.948 308.47 386.634 290.517 449.098 290.517V323.84C403.755 323.84 339.222 324.502 339.222 423.807Z" fill="black"/>
    <path d="M2.71616 507.621H-59.9984C-59.9984 607.589 -137.764 607.589 -169.498 607.589V640.912C-107.41 640.912 -35.6655 623.687 -28.3907 541.209C-22.5576 622.958 50.1282 640.912 112.592 640.912V607.589C67.2494 607.589 2.71616 606.927 2.71616 507.621Z" fill="black"/>
    <path d="M2.71616 789.969H-59.9984C-59.9984 690.001 -137.764 690.001 -169.498 690.001V656.678C-107.41 656.678 -35.6655 673.903 -28.3907 756.38C-22.5576 674.632 50.1282 656.678 112.592 656.678V690.001C67.2494 690.001 2.71616 690.663 2.71616 789.969Z" fill="black"/>
    <path d="M2.71616 141.461H-59.9984C-59.9984 241.429 -137.764 241.429 -169.498 241.429V274.752C-107.41 274.752 -35.6655 257.527 -28.3907 175.049C-22.5576 256.798 50.1282 274.752 112.592 274.752V241.429C67.2494 241.429 2.71616 240.767 2.71616 141.461Z" fill="black"/>
    <path d="M2.71616 423.807H-59.9984C-59.9984 323.84 -137.764 323.84 -169.498 323.84V290.517C-107.41 290.517 -35.6655 307.742 -28.3907 390.219C-22.5576 308.47 50.1282 290.517 112.592 290.517V323.84C67.2494 323.84 2.71616 324.502 2.71616 423.807Z" fill="black"/>
  </g>
</svg>